<svg version="1.1" xmlns="http://www.w3.org/2000/svg" width="800" height="800" viewBox="0 0 934 1024">
    <path d="M883.2 448h51.2v128h-51.2v-128zM780.8 192h51.2v640h-51.2v-640zM678.4 320h51.2v384h-51.2v-384zM576 64h51.2v896h-51.2v-896zM0 512c0 282.765 229.235 512 512 512v-1024c-282.765 0-512 229.235-512 512z"></path>
    <g id="link-icon" transform="translate(760 800),scale(10)" opacity="0.8">
        <path fill-rule="evenodd" clip-rule="evenodd" d="M10.975 14.51a1.05 1.05 0 0 0 0-1.485 2.95 2.95 0 0 1 0-4.172l3.536-3.535a2.95 2.95 0 1 1 4.172 4.172l-1.093 1.092a1.05 1.05 0 0 0 1.485 1.485l1.093-1.092a5.05 5.05 0 0 0-7.142-7.142L9.49 7.368a5.05 5.05 0 0 0 0 7.142c.41.41 1.075.41 1.485 0zm2.05-5.02a1.05 1.05 0 0 0 0 1.485 2.95 2.95 0 0 1 0 4.172l-3.5 3.5a2.95 2.95 0 1 1-4.171-4.172l1.025-1.025a1.05 1.05 0 0 0-1.485-1.485L3.87 12.99a5.05 5.05 0 0 0 7.142 7.142l3.5-3.5a5.05 5.05 0 0 0 0-7.142 1.05 1.05 0 0 0-1.485 0z" fill="#000000" stroke="#000000" stroke-width="0.5" fill-opacity="0.8"/>
    </g>
</svg>
